<svg width="500" height="501" viewBox="0 0 500 501" fill="none" xmlns="http://www.w3.org/2000/svg">
<path d="M0 0.5H500V125.5H274L274.5 123.5L275 120.5V116.5L274.5 113.5L274 111.5L272.5 107.5L270 103.5L268 101L265 98.5L260.5 95.5L256 94L251 93.5H248L245 94L239.5 95.5L235 98.5L231 102L228 106.5L226.5 109.5L226 111.5L225.5 113.5L225 115.5V118V121L225.5 123L226 125.5L227 128.5L228.5 131.5L230 133.5L232 136L232.5 136.5L233.5 137.5L235 138.5L238 140.5L240 141.5L243 142.5L245 143L249 143.5H251L255 143L258.5 142.5L265.5 138.5L270 134L273 128.5L274 125.5L277 192H227V413H277V192L274 125.5H500V500.5H0V0.5Z" fill="black"/>
</svg>
