<svg width="652" height="847" viewBox="0 0 652 847" fill="none" xmlns="http://www.w3.org/2000/svg">
<path d="M545 331C545 298.17 539.335 265.661 528.33 235.329C517.324 204.998 501.192 177.438 480.856 154.223C460.52 131.009 436.378 112.594 409.808 100.03C383.237 87.4664 354.759 81 326 81C297.24 81 268.763 87.4664 242.192 100.03C215.622 112.594 191.48 131.009 171.144 154.223C150.808 177.438 134.676 204.998 123.67 235.329C112.665 265.661 107 298.17 107 331L326 331H545Z" fill="black"/>
<path d="M458.242 14.3247C464.809 6.49777 476.478 5.47687 484.305 12.0444V12.0444C492.132 18.6119 493.153 30.2809 486.585 38.1078L421.344 115.86L393 92.0766L458.242 14.3247Z" fill="black"/>
<path d="M166.042 38.2026C159.475 30.3757 160.496 18.7067 168.322 12.1392V12.1392C176.149 5.57166 187.818 6.59256 194.386 14.4194L259.629 92.173L231.285 115.956L166.042 38.2026Z" fill="black"/>
<path d="M107 360H545V613C545 640.614 522.614 663 495 663H157C129.386 663 107 640.614 107 613V360Z" fill="black"/>
<rect x="569" y="360" width="83" height="303" rx="41.5" fill="black"/>
<rect y="360" width="83" height="303" rx="41.5" fill="black"/>
<rect x="389" y="631" width="83" height="216" rx="41.5" fill="black"/>
<rect x="177" y="631" width="83" height="216" rx="41.5" fill="black"/>
</svg>
