<svg width="500" height="548" viewBox="0 0 500 548" fill="none" xmlns="http://www.w3.org/2000/svg">
<rect width="500" height="548" rx="137" fill="#FFBF00"/>
<path d="M279 439C279 433.477 283.477 429 289 429H463V449H289C283.477 449 279 444.523 279 439V439Z" fill="black"/>
<rect x="443" y="342" width="20" height="87" fill="black"/>
<rect x="47" y="235" width="20" height="87" fill="black"/>
<path d="M240 158C240 152.477 244.477 148 250 148V148C255.523 148 260 152.477 260 158V235H240V158Z" fill="black"/>
<rect x="320" y="322" width="143" height="20" fill="black"/>
<rect x="241" y="311" width="6" height="41" fill="black"/>
<rect x="270" y="311" width="6" height="41" fill="black"/>
<rect x="47" y="322" width="149" height="20" fill="black"/>
<path d="M247 317H262C264.761 317 267 319.239 267 322V322C267 324.761 264.761 327 262 327H247V317Z" fill="black"/>
<path d="M247 335H262C264.761 335 267 337.239 267 340V340C267 342.761 264.761 345 262 345H247V335Z" fill="black"/>
<path d="M196 315H216L240 311V352L216 348H196V315Z" fill="black"/>
<path d="M320 348.266L301 348L277 352V311L301 314H320V348.266Z" fill="black"/>
<rect x="47" y="215" width="193" height="20" fill="black"/>
<g filter="url(#filter0_d_18_169)">
<path d="M72.0078 434.602H62.1406V427.992C62.1406 426.07 62.0312 424.875 61.8125 424.406C61.6094 423.922 61.1484 423.68 60.4297 423.68C59.6172 423.68 59.1016 423.969 58.8828 424.547C58.6641 425.125 58.5547 426.375 58.5547 428.297V445.922C58.5547 447.766 58.6641 448.969 58.8828 449.531C59.1016 450.094 59.5938 450.375 60.3594 450.375C61.0938 450.375 61.5703 450.094 61.7891 449.531C62.0234 448.969 62.1406 447.648 62.1406 445.57V440.812H72.0078V442.289C72.0078 446.211 71.7266 448.992 71.1641 450.633C70.6172 452.273 69.3906 453.711 67.4844 454.945C65.5938 456.18 63.2578 456.797 60.4766 456.797C57.5859 456.797 55.2031 456.273 53.3281 455.227C51.4531 454.18 50.2109 452.734 49.6016 450.891C48.9922 449.031 48.6875 446.242 48.6875 442.523V431.438C48.6875 428.703 48.7812 426.656 48.9688 425.297C49.1562 423.922 49.7109 422.602 50.6328 421.336C51.5703 420.07 52.8594 419.078 54.5 418.359C56.1562 417.625 58.0547 417.258 60.1953 417.258C63.1016 417.258 65.5 417.82 67.3906 418.945C69.2812 420.07 70.5234 421.477 71.1172 423.164C71.7109 424.836 72.0078 427.445 72.0078 430.992V434.602ZM96.6875 435.82V443.438C96.6875 446.234 96.5469 448.289 96.2656 449.602C95.9844 450.898 95.3828 452.117 94.4609 453.258C93.5391 454.383 92.3516 455.219 90.8984 455.766C89.4609 456.297 87.8047 456.562 85.9297 456.562C83.8359 456.562 82.0625 456.336 80.6094 455.883C79.1562 455.414 78.0234 454.719 77.2109 453.797C76.4141 452.859 75.8438 451.734 75.5 450.422C75.1562 449.094 74.9844 447.109 74.9844 444.469V436.5C74.9844 433.609 75.2969 431.352 75.9219 429.727C76.5469 428.102 77.6719 426.797 79.2969 425.812C80.9219 424.828 83 424.336 85.5312 424.336C87.6562 424.336 89.4766 424.656 90.9922 425.297C92.5234 425.922 93.7031 426.742 94.5312 427.758C95.3594 428.773 95.9219 429.82 96.2188 430.898C96.5312 431.977 96.6875 433.617 96.6875 435.82ZM87.2188 433.477C87.2188 431.883 87.1328 430.883 86.9609 430.477C86.7891 430.055 86.4219 429.844 85.8594 429.844C85.2969 429.844 84.9219 430.055 84.7344 430.477C84.5469 430.883 84.4531 431.883 84.4531 433.477V447.516C84.4531 448.984 84.5469 449.945 84.7344 450.398C84.9219 450.836 85.2891 451.055 85.8359 451.055C86.3984 451.055 86.7656 450.852 86.9375 450.445C87.125 450.039 87.2188 449.164 87.2188 447.82V433.477ZM109.461 424.898L109.297 427.758C109.984 426.617 110.82 425.766 111.805 425.203C112.805 424.625 113.953 424.336 115.25 424.336C116.875 424.336 118.203 424.719 119.234 425.484C120.266 426.25 120.93 427.219 121.227 428.391C121.523 429.547 121.672 431.484 121.672 434.203V456H112.203V434.461C112.203 432.32 112.133 431.016 111.992 430.547C111.852 430.078 111.461 429.844 110.82 429.844C110.148 429.844 109.727 430.117 109.555 430.664C109.383 431.195 109.297 432.633 109.297 434.977V456H99.8281V424.898H109.461ZM134.586 424.898L134.422 427.758C135.109 426.617 135.945 425.766 136.93 425.203C137.93 424.625 139.078 424.336 140.375 424.336C142 424.336 143.328 424.719 144.359 425.484C145.391 426.25 146.055 427.219 146.352 428.391C146.648 429.547 146.797 431.484 146.797 434.203V456H137.328V434.461C137.328 432.32 137.258 431.016 137.117 430.547C136.977 430.078 136.586 429.844 135.945 429.844C135.273 429.844 134.852 430.117 134.68 430.664C134.508 431.195 134.422 432.633 134.422 434.977V456H124.953V424.898H134.586ZM171.523 441H159.266V447.727C159.266 449.133 159.367 450.039 159.57 450.445C159.773 450.852 160.164 451.055 160.742 451.055C161.461 451.055 161.938 450.789 162.172 450.258C162.422 449.711 162.547 448.664 162.547 447.117V443.016H171.523V445.312C171.523 447.234 171.398 448.711 171.148 449.742C170.914 450.773 170.352 451.875 169.461 453.047C168.57 454.219 167.438 455.102 166.062 455.695C164.703 456.273 162.992 456.562 160.93 456.562C158.93 456.562 157.164 456.273 155.633 455.695C154.102 455.117 152.906 454.328 152.047 453.328C151.203 452.312 150.617 451.203 150.289 450C149.961 448.781 149.797 447.016 149.797 444.703V435.633C149.797 432.914 150.164 430.773 150.898 429.211C151.633 427.633 152.836 426.43 154.508 425.602C156.18 424.758 158.102 424.336 160.273 424.336C162.93 424.336 165.117 424.844 166.836 425.859C168.57 426.859 169.781 428.195 170.469 429.867C171.172 431.523 171.523 433.859 171.523 436.875V441ZM162.031 435.938V433.664C162.031 432.055 161.945 431.016 161.773 430.547C161.602 430.078 161.25 429.844 160.719 429.844C160.062 429.844 159.656 430.047 159.5 430.453C159.344 430.844 159.266 431.914 159.266 433.664V435.938H162.031ZM195.57 436.641H186.641V433.055C186.641 431.805 186.539 430.961 186.336 430.523C186.133 430.07 185.758 429.844 185.211 429.844C184.664 429.844 184.297 430.039 184.109 430.43C183.922 430.82 183.828 431.695 183.828 433.055V447.727C183.828 448.836 183.969 449.672 184.25 450.234C184.531 450.781 184.945 451.055 185.492 451.055C186.133 451.055 186.562 450.766 186.781 450.188C187.016 449.609 187.133 448.516 187.133 446.906V443.203H195.57C195.555 445.688 195.461 447.555 195.289 448.805C195.133 450.039 194.609 451.312 193.719 452.625C192.844 453.922 191.695 454.906 190.273 455.578C188.852 456.234 187.094 456.562 185 456.562C182.328 456.562 180.211 456.109 178.648 455.203C177.086 454.281 175.977 453 175.32 451.359C174.68 449.703 174.359 447.359 174.359 444.328V435.492C174.359 432.852 174.625 430.859 175.156 429.516C175.688 428.172 176.82 426.977 178.555 425.93C180.289 424.867 182.398 424.336 184.883 424.336C187.352 424.336 189.461 424.859 191.211 425.906C192.961 426.953 194.125 428.273 194.703 429.867C195.281 431.461 195.57 433.719 195.57 436.641ZM208.391 420.75V425.648H210.945V430.57H208.391V447.211C208.391 449.258 208.492 450.398 208.695 450.633C208.914 450.867 209.797 450.984 211.344 450.984V456H207.523C205.367 456 203.828 455.914 202.906 455.742C201.984 455.555 201.172 455.141 200.469 454.5C199.766 453.844 199.328 453.102 199.156 452.273C198.984 451.43 198.898 449.461 198.898 446.367V430.57H196.859V425.648H198.898V420.75H208.391ZM222.781 418.055V423H213.031V418.055H222.781ZM222.781 424.898V456H213.031V424.898H222.781ZM247.625 435.82V443.438C247.625 446.234 247.484 448.289 247.203 449.602C246.922 450.898 246.32 452.117 245.398 453.258C244.477 454.383 243.289 455.219 241.836 455.766C240.398 456.297 238.742 456.562 236.867 456.562C234.773 456.562 233 456.336 231.547 455.883C230.094 455.414 228.961 454.719 228.148 453.797C227.352 452.859 226.781 451.734 226.438 450.422C226.094 449.094 225.922 447.109 225.922 444.469V436.5C225.922 433.609 226.234 431.352 226.859 429.727C227.484 428.102 228.609 426.797 230.234 425.812C231.859 424.828 233.938 424.336 236.469 424.336C238.594 424.336 240.414 424.656 241.93 425.297C243.461 425.922 244.641 426.742 245.469 427.758C246.297 428.773 246.859 429.82 247.156 430.898C247.469 431.977 247.625 433.617 247.625 435.82ZM238.156 433.477C238.156 431.883 238.07 430.883 237.898 430.477C237.727 430.055 237.359 429.844 236.797 429.844C236.234 429.844 235.859 430.055 235.672 430.477C235.484 430.883 235.391 431.883 235.391 433.477V447.516C235.391 448.984 235.484 449.945 235.672 450.398C235.859 450.836 236.227 451.055 236.773 451.055C237.336 451.055 237.703 450.852 237.875 450.445C238.062 450.039 238.156 449.164 238.156 447.82V433.477ZM260.398 424.898L260.234 427.758C260.922 426.617 261.758 425.766 262.742 425.203C263.742 424.625 264.891 424.336 266.188 424.336C267.812 424.336 269.141 424.719 270.172 425.484C271.203 426.25 271.867 427.219 272.164 428.391C272.461 429.547 272.609 431.484 272.609 434.203V456H263.141V434.461C263.141 432.32 263.07 431.016 262.93 430.547C262.789 430.078 262.398 429.844 261.758 429.844C261.086 429.844 260.664 430.117 260.492 430.664C260.32 431.195 260.234 432.633 260.234 434.977V456H250.766V424.898H260.398Z" fill="black"/>
</g>
<g filter="url(#filter1_d_18_169)">
<rect x="229.5" y="95.5" width="41" height="41" rx="20.5" stroke="black" stroke-width="9" shape-rendering="crispEdges"/>
</g>
<path d="M292.1 123C295.358 123 298.035 120.35 297.666 117.113C297.149 112.568 296.034 108.111 294.346 103.866C291.934 97.7995 288.398 92.2876 283.941 87.6447C279.484 83.0017 274.192 79.3188 268.369 76.806C262.545 74.2933 256.303 73 250 73C243.697 73 237.455 74.2933 231.631 76.806C225.808 79.3188 220.516 83.0017 216.059 87.6447C211.602 92.2876 208.066 97.7996 205.654 103.866C203.966 108.111 202.851 112.569 202.334 117.113C201.965 120.35 204.642 123 207.9 123V123C211.159 123 213.755 120.344 214.243 117.122C214.686 114.193 215.461 111.322 216.556 108.57C218.375 103.995 221.041 99.8378 224.403 96.3363C227.764 92.8347 231.755 90.0572 236.147 88.1622C240.539 86.2671 245.246 85.2918 250 85.2918C254.754 85.2918 259.461 86.2671 263.853 88.1622C268.245 90.0572 272.236 92.8347 275.597 96.3363C278.959 99.8378 281.625 103.995 283.444 108.57C284.539 111.322 285.314 114.193 285.757 117.122C286.245 120.344 288.841 123 292.1 123V123Z" fill="black"/>
<path d="M314.031 108C317.88 108 321.066 104.851 320.311 101.076C319.474 96.8911 317.88 92.7874 315.557 88.8658C311.964 82.7995 306.698 77.2876 300.058 72.6447C293.419 68.0017 285.537 64.3188 276.862 61.806C268.187 59.2933 258.89 58 249.5 58C240.11 58 230.813 59.2933 222.138 61.806C213.463 64.3188 205.581 68.0017 198.942 72.6447C192.302 77.2876 187.036 82.7996 183.443 88.8658C181.12 92.7875 179.526 96.8911 178.689 101.076C177.934 104.851 181.12 108 184.969 108V108C188.818 108 191.861 104.836 192.79 101.101C193.514 98.1904 194.696 95.3378 196.32 92.5958C199.213 87.7121 203.453 83.2747 208.798 79.5368C214.143 75.799 220.488 72.834 227.472 70.8111C234.456 68.7882 241.941 67.747 249.5 67.747C257.059 67.747 264.544 68.7882 271.528 70.8111C278.512 72.834 284.857 75.799 290.202 79.5368C295.547 83.2747 299.787 87.7121 302.68 92.5958C304.304 95.3378 305.486 98.1904 306.21 101.101C307.139 104.836 310.182 108 314.031 108V108Z" fill="black"/>
<path d="M333.935 91C338.942 91 343.111 86.8435 341.514 82.0986C340.337 78.5986 338.465 75.1677 335.921 71.8658C331.247 65.7995 324.397 60.2876 315.761 55.6447C307.125 51.0017 296.873 47.3188 285.59 44.806C274.306 42.2933 262.213 41 250 41C237.787 41 225.694 42.2933 214.41 44.806C203.127 47.3188 192.875 51.0017 184.239 55.6447C175.603 60.2876 168.753 65.7996 164.079 71.8658C161.535 75.1677 159.663 78.5986 158.486 82.0986C156.889 86.8435 161.058 91 166.065 91V91C171.071 91 175.019 86.7999 176.949 82.1804C177.886 79.9351 179.183 77.7319 180.829 75.5958C184.591 70.7121 190.106 66.2747 197.058 62.5368C204.011 58.799 212.265 55.834 221.348 53.8111C230.432 51.7882 240.168 50.747 250 50.747C259.832 50.747 269.568 51.7882 278.652 53.8111C287.735 55.834 295.989 58.799 302.942 62.5368C309.894 66.2747 315.409 70.7121 319.171 75.5958C320.817 77.7319 322.114 79.9351 323.051 82.1804C324.981 86.7999 328.929 91 333.935 91V91Z" fill="black"/>
<defs>
<filter id="filter0_d_18_169" x="44.6875" y="417.258" width="231.922" height="47.5391" filterUnits="userSpaceOnUse" color-interpolation-filters="sRGB">
<feFlood flood-opacity="0" result="BackgroundImageFix"/>
<feColorMatrix in="SourceAlpha" type="matrix" values="0 0 0 0 0 0 0 0 0 0 0 0 0 0 0 0 0 0 127 0" result="hardAlpha"/>
<feOffset dy="4"/>
<feGaussianBlur stdDeviation="2"/>
<feComposite in2="hardAlpha" operator="out"/>
<feColorMatrix type="matrix" values="0 0 0 0 0 0 0 0 0 0 0 0 0 0 0 0 0 0 0.25 0"/>
<feBlend mode="normal" in2="BackgroundImageFix" result="effect1_dropShadow_18_169"/>
<feBlend mode="normal" in="SourceGraphic" in2="effect1_dropShadow_18_169" result="shape"/>
</filter>
<filter id="filter1_d_18_169" x="221" y="91" width="58" height="58" filterUnits="userSpaceOnUse" color-interpolation-filters="sRGB">
<feFlood flood-opacity="0" result="BackgroundImageFix"/>
<feColorMatrix in="SourceAlpha" type="matrix" values="0 0 0 0 0 0 0 0 0 0 0 0 0 0 0 0 0 0 127 0" result="hardAlpha"/>
<feOffset dy="4"/>
<feGaussianBlur stdDeviation="2"/>
<feComposite in2="hardAlpha" operator="out"/>
<feColorMatrix type="matrix" values="0 0 0 0 0 0 0 0 0 0 0 0 0 0 0 0 0 0 0.25 0"/>
<feBlend mode="normal" in2="BackgroundImageFix" result="effect1_dropShadow_18_169"/>
<feBlend mode="normal" in="SourceGraphic" in2="effect1_dropShadow_18_169" result="shape"/>
</filter>
</defs>
</svg>
