<svg width="500" height="500" viewBox="0 0 500 500" fill="none" xmlns="http://www.w3.org/2000/svg">
<rect x="25" y="25" width="450" height="450" rx="225" stroke="black" stroke-width="50"/>
<path d="M181.243 148.435C185.046 141.542 190.135 135.443 196.234 130.467C202.678 125.21 210.12 121.313 218.11 119.011L223.457 117.47C231.446 115.168 239.719 114 248.033 114H259.861C267.888 114 275.848 115.452 283.357 118.286C293.307 122.041 302.213 128.125 309.327 136.03L310.678 137.531C317.48 145.089 322.58 154.019 325.633 163.717C328.19 171.84 329.266 180.355 328.809 188.858L327.944 204.95C327.324 216.47 323.858 227.657 317.854 237.508L317.217 238.554C310.866 248.977 301.727 257.417 290.833 262.921L279.122 268.839C267.156 274.885 258.945 286.447 257.181 299.738L254.251 321.807C253.249 329.359 246.809 335 239.192 335C230.802 335 224 328.198 224 319.808V288.864C224 268.472 237.387 250.499 256.925 244.66L262.006 243.142C265.652 242.052 269.131 240.47 272.348 238.438C281.431 232.701 287.954 223.684 290.56 213.261L292.357 206.071C294.102 199.094 294.437 191.839 293.343 184.731L293.019 182.625C292.344 178.237 290.962 173.988 288.926 170.044C285.696 163.787 280.911 158.466 275.03 154.593L274.443 154.206C267.305 149.505 258.945 147 250.397 147H248.662C241.313 147 234.056 148.636 227.418 151.789L225.119 152.881C220.098 155.266 215.645 158.698 212.061 162.947L210.257 165.084C206.188 169.907 203.729 175.882 203.226 182.173L202.148 195.645C201.5 203.752 194.732 210 186.599 210C177.984 210 171 203.016 171 194.401V175.807C171 170.03 172.464 164.347 175.254 159.289L181.243 148.435Z" fill="black"/>
<path d="M181.243 148.435C185.046 141.542 190.135 135.443 196.234 130.467C202.678 125.21 210.12 121.313 218.11 119.011L223.457 117.47C231.446 115.168 239.719 114 248.033 114H259.861C267.888 114 275.848 115.452 283.357 118.286C293.307 122.041 302.213 128.125 309.327 136.03L310.678 137.531C317.48 145.089 322.58 154.019 325.633 163.717C328.19 171.84 329.266 180.355 328.809 188.858L327.944 204.95C327.324 216.47 323.858 227.657 317.854 237.508L317.217 238.554C310.866 248.977 301.727 257.417 290.833 262.921L279.122 268.839C267.156 274.885 258.945 286.447 257.181 299.738L254.251 321.807C253.249 329.359 246.809 335 239.192 335C230.802 335 224 328.198 224 319.808V288.864C224 268.472 237.387 250.499 256.925 244.66L262.006 243.142C265.652 242.052 269.131 240.47 272.348 238.438C281.431 232.701 287.954 223.684 290.56 213.261L292.357 206.071C294.102 199.094 294.437 191.839 293.343 184.731L293.019 182.625C292.344 178.237 290.962 173.988 288.926 170.044C285.696 163.787 280.911 158.466 275.03 154.593L274.443 154.206C267.305 149.505 258.945 147 250.397 147H248.662C241.313 147 234.056 148.636 227.418 151.789L225.119 152.881C220.098 155.266 215.645 158.698 212.061 162.947L210.257 165.084C206.188 169.907 203.729 175.882 203.226 182.173L202.148 195.645C201.5 203.752 194.732 210 186.599 210C177.984 210 171 203.016 171 194.401V175.807C171 170.03 172.464 164.347 175.254 159.289L181.243 148.435Z" stroke="black"/>
<rect x="219" y="345.5" width="40" height="40" rx="20" fill="black"/>
</svg>
