<svg width="500" height="500" viewBox="0 0 500 500" fill="none" xmlns="http://www.w3.org/2000/svg">
<rect x="25" y="25" width="450" height="450" rx="225" stroke="black" stroke-width="50"/>
<path d="M301.19 78L274.622 113.493L249.894 146.216L248.934 142.302C242.355 115.483 258.763 88.4082 285.582 81.8291L301.19 78Z" fill="black"/>
<path d="M249.878 146.243L276.446 110.751L301.174 78.0274L302.135 81.9413C308.714 108.76 292.306 135.835 265.487 142.414L249.878 146.243Z" fill="black"/>
<path d="M122.592 169.152C126.174 163.089 130.701 157.637 136 153V153L145.5 145.5L151.609 141.66C159.189 136.896 167.169 132.801 175.46 129.424L176.5 129L182.672 126.805C186.042 125.607 189.558 124.869 193.125 124.609L193.947 124.549C198.928 124.187 203.929 124.867 208.631 126.547V126.547C213.164 128.166 217.325 130.679 220.868 133.938L228 140.5L241.05 151.686C241.682 152.228 242.263 152.826 242.786 153.473V153.473C247.944 159.86 257.533 160.281 263.231 154.371L265.136 152.396C265.711 151.8 266.332 151.248 266.992 150.748L280.5 140.5L291.002 134.307C296.965 130.79 303.436 128.219 310.187 126.685L312.167 126.235C318.67 124.757 325.384 124.457 331.992 125.35V125.35C337.631 126.112 343.12 127.733 348.268 130.155L349.938 130.942C354.946 133.298 359.533 136.458 363.52 140.297L368.89 145.468C370.282 146.809 371.388 148.418 372.141 150.198L375.526 158.198C376.098 159.55 375.675 161.119 374.5 162V162L371 165L368 167.5L364 171L359.5 175L355.5 179.5L353.217 182.436C352.407 183.477 351.683 184.582 351.051 185.74V185.74C349.694 188.228 348.78 190.932 348.349 193.733L348.304 194.024C348.102 195.339 348 196.668 348 197.999V201V208.5V209.329C348 213.762 348.503 218.181 349.5 222.5V222.5L351 228.5L354 238L355.954 242.188C356.974 244.372 358.437 246.32 360.251 247.907V247.907C361.082 248.634 361.98 249.28 362.934 249.836L367.5 252.5L372 254.5L377 256.5L385.5 260L395.208 263.883C395.402 263.961 395.604 264.017 395.81 264.052V264.052C397.322 264.304 398.378 265.688 398.222 267.213L396.71 281.952C396.57 283.313 396.282 284.655 395.849 285.954L391 300.5L386 320L379 338.5L371 357L367.22 366.45C364.427 373.432 360.463 379.887 355.499 385.535L354.336 386.859C350.47 391.258 345.927 395.013 340.879 397.983V397.983C334.686 401.626 327.841 404.023 320.728 405.039L319.378 405.232C313.49 406.073 307.511 406.063 301.626 405.201L298.228 404.704C292.762 403.904 287.409 402.463 282.279 400.412L279.824 399.43C276.618 398.147 273.279 397.225 269.87 396.679L269.71 396.654C264.934 395.889 260.066 395.889 255.29 396.654V396.654C251.775 397.216 248.339 398.187 245.05 399.548L240.782 401.314C237.27 402.768 233.62 403.864 229.888 404.586L229.249 404.71C223.131 405.894 216.852 405.99 210.701 404.992V404.992C204.614 404.005 198.746 401.963 193.361 398.957L190.261 397.227C183.464 393.433 177.316 388.579 172.049 382.847L163 373L145.5 352L135.753 338.414C131.257 332.147 127.239 325.551 123.731 318.682L117 305.5L111.082 290.062C107.375 280.392 104.893 270.296 103.693 260.009V260.009C102.568 250.37 102.578 240.631 103.721 230.994L104.12 227.63C105.039 219.888 106.548 212.227 108.635 204.715L110.5 198L116.5 181.5L121.5 171L122.592 169.152Z" fill="black"/>
</svg>
