<svg width="500" height="433" viewBox="0 0 500 433" fill="none" xmlns="http://www.w3.org/2000/svg">
<path d="M0 132C0 104.386 22.3858 82 50 82H450C477.614 82 500 104.386 500 132V232H0V132Z" fill="black"/>
<path d="M0 283H169.5V336H334.75V283H500V383C500 410.614 477.614 433 450 433H50C22.3858 433 0 410.614 0 383V283Z" fill="black"/>
<g filter="url(#filter0_d_8_14)">
<mask id="path-3-inside-1_8_14" fill="white">
<path d="M128 50C128 22.3858 150.386 0 178 0H322C349.614 0 372 22.3858 372 50V82H128V50Z"/>
</mask>
<path d="M78 50C78 -5.22847 122.772 -50 178 -50H322C377.228 -50 422 -5.22847 422 50H322H178H78ZM372 82H128H372ZM78 82V50C78 -5.22847 122.772 -50 178 -50V50V82H78ZM322 -50C377.228 -50 422 -5.22847 422 50V82H322V50V-50Z" fill="black" mask="url(#path-3-inside-1_8_14)"/>
</g>
<defs>
<filter id="filter0_d_8_14" x="124" y="0" width="252" height="90" filterUnits="userSpaceOnUse" color-interpolation-filters="sRGB">
<feFlood flood-opacity="0" result="BackgroundImageFix"/>
<feColorMatrix in="SourceAlpha" type="matrix" values="0 0 0 0 0 0 0 0 0 0 0 0 0 0 0 0 0 0 127 0" result="hardAlpha"/>
<feOffset dy="4"/>
<feGaussianBlur stdDeviation="2"/>
<feComposite in2="hardAlpha" operator="out"/>
<feColorMatrix type="matrix" values="0 0 0 0 0 0 0 0 0 0 0 0 0 0 0 0 0 0 0.25 0"/>
<feBlend mode="normal" in2="BackgroundImageFix" result="effect1_dropShadow_8_14"/>
<feBlend mode="normal" in="SourceGraphic" in2="effect1_dropShadow_8_14" result="shape"/>
</filter>
</defs>
</svg>
