<svg width="500" height="500" viewBox="0 0 500 500" fill="none" xmlns="http://www.w3.org/2000/svg">
<path d="M0 250C0 111.929 111.929 0 250 0H264.5V161H111.5V161C109.015 161 107 163.015 107 165.5V189.5V326.5V326.5C107 333.404 112.596 339 119.5 339H380.5C387.404 339 393 333.404 393 326.5V326.5V189V164C393 162.343 391.657 161 390 161V161H264.5V0V0C394.563 0 500 105.437 500 235.5V250C500 388.071 388.071 500 250 500V500C111.929 500 0 388.071 0 250V250Z" fill="black"/>
<path d="M245.618 264.961L108.104 174.943C101.452 170.589 104.535 160.25 112.485 160.25L387.515 160.25C395.465 160.25 398.548 170.589 391.896 174.943L254.382 264.961C251.72 266.703 248.28 266.703 245.618 264.961Z" stroke="black" stroke-width="12"/>
</svg>
