<svg width="509" height="507" viewBox="0 0 509 507" fill="none" xmlns="http://www.w3.org/2000/svg">
<path d="M0 77C0 38.3401 31.3401 7 70 7H279.748C290.697 7 299.61 15.8027 299.747 26.75V26.75C299.886 37.8926 290.892 47 279.748 47H74.1421C65.0871 47 56.4029 50.5971 50 57V57C43.5971 63.4029 40 72.0871 40 81.1421V432.858C40 441.913 43.5971 450.597 50 457V457C56.4029 463.403 65.0871 467 74.1421 467H425.858C434.913 467 443.597 463.403 450 457V457C456.403 450.597 460 441.913 460 432.858V162C460 150.954 468.954 142 480 142V142C491.046 142 500 150.954 500 162V437C500 475.66 468.66 507 430 507H70C31.3401 507 0 475.66 0 437V77Z" fill="black"/>
<path d="M206.548 341.813L141.579 366.002L166.781 301.419L206.548 341.813Z" stroke="black" stroke-width="9"/>
<rect x="448.896" y="94.918" width="49.7098" height="11.0137" transform="rotate(-135 448.896 94.918)" fill="black"/>
<rect x="410.76" y="76.8711" width="10" height="269.258" rx="5" transform="rotate(45 410.76 76.8711)" fill="black"/>
<rect x="456.565" y="8.5346" width="61.5322" height="410.266" rx="9" transform="rotate(45 456.565 8.5346)" stroke="black" stroke-width="12"/>
</svg>
