<svg width="543" height="451" viewBox="0 0 543 451" fill="none" xmlns="http://www.w3.org/2000/svg">
<rect x="205.939" y="21.1428" width="125.29" height="186.764" rx="13" transform="rotate(33.7962 205.939 21.1428)" fill="black"/>
<rect x="411.663" y="316.502" width="99.1247" height="37.8653" rx="4" transform="rotate(-59.1985 411.663 316.502)" fill="black"/>
<rect x="213.913" width="137.094" height="19.6187" rx="9.80934" transform="rotate(33.7962 213.913 0)" fill="black"/>
<rect x="95.9126" y="175" width="137.094" height="19.6187" rx="9.80934" transform="rotate(33.7962 95.9126 175)" fill="black"/>
<rect x="5" y="407" width="306" height="39" rx="12" stroke="black" stroke-width="10"/>
<rect x="21" y="369" width="272" height="33" rx="16.5" fill="black"/>
<rect x="21" y="369" width="272" height="33" rx="16.5" stroke="#765959"/>
<path d="M205.324 138.138C201.93 135.19 205.229 129.75 209.411 131.396L452.516 227.035C454.824 227.942 455.757 230.71 454.472 232.831L408.579 308.522C407.294 310.642 404.408 311.094 402.536 309.467L205.324 138.138Z" fill="black"/>
</svg>
